<svg width="20" height="20" xmlns="http://www.w3.org/2000/svg">

 <g>
  <title>background</title>
  <rect fill="none" id="canvas_background" height="22" width="22" y="-1" x="-1"/>
 </g>
 <g>
  <title>Layer 1</title>
  <path stroke="null" fill="#f9a057" id="svg_1" d="m15.226987,10.831565l0,-1.5993q0,-0.324858 -0.228071,-0.562254t-0.540169,-0.237396l-9.218882,0q-0.312098,0 -0.540169,0.237396t-0.228071,0.562254l0,1.5993q0,0.324858 0.228071,0.562254t0.540169,0.237396l9.218882,0q0.312098,0 0.540169,-0.237396t0.228071,-0.562254zm3.841201,-0.79965q0,2.611358 -1.236387,4.816643t-3.355049,3.492223t-4.627447,1.286937t-4.627447,-1.286937t-3.355049,-3.492223t-1.236387,-4.816643t1.236387,-4.816643t3.355049,-3.492223t4.627447,-1.286937t4.627447,1.286937t3.355049,3.492223t1.236387,4.816643z"/>
 </g>
</svg>