<svg width="20" height="20" xmlns="http://www.w3.org/2000/svg">

 <g>
  <title>background</title>
  <rect fill="none" id="canvas_background" height="22" width="22" y="-1" x="-1"/>
 </g>
 <g>
  <title>Layer 1</title>
  <path stroke="null" id="svg_1" fill="#f9a057" d="m10.039017,0.541192c-5.271255,0 -9.53312,4.210524 -9.53312,9.418278s4.261865,9.418278 9.53312,9.418278c5.271255,0 9.53312,-4.210524 9.53312,-9.418278s-4.261865,-9.418278 -9.53312,-9.418278zm5.944181,10.925202l-4.441312,0l0,4.387809c0,0.443213 -0.358894,0.797784 -0.807511,0.797784l-1.390714,0c-0.448617,0 -0.807511,-0.35457 -0.807511,-0.797784l0,-4.387809l-4.441312,0c-0.448617,0 -0.807511,-0.35457 -0.807511,-0.797784l0,-1.373961c0,-0.443213 0.358894,-0.797784 0.807511,-0.797784l4.441312,0l0,-4.387809c0,-0.443213 0.358894,-0.797784 0.807511,-0.797784l1.390714,0c0.448617,0 0.807511,0.35457 0.807511,0.797784l0,4.387809l4.441312,0c0.448617,0 0.807511,0.35457 0.807511,0.797784l0,1.373961c0,0.421052 -0.358894,0.797784 -0.807511,0.797784z"/>
 </g>
</svg>