<?xml version="1.0" ?><svg enable-background="new 0 0 160 240" id="Layer_1" version="1.1" viewBox="0 0 160 240" xml:space="preserve" xmlns="http://www.w3.org/2000/svg" xmlns:xlink="http://www.w3.org/1999/xlink"><path d="M99.9,231.4c26.9-13.2,1-17.9-14.1-26.3c-20.8-11.6-27.5-15.7-43-6.1c-17.1,10.6,0.2,17.9,16.1,25.3  C77,232.7,83.9,239.2,99.9,231.4z" opacity="0.2"/><path d="M51.8,79.6c-0.1,6-1.4,12.5-2.9,17.5s-1,10.7-0.5,11.7c0.5,1,1.8,4.7,2,5.6c0.3,0.9,1.6,0.9,1.8-0.8  c0.3-1.6-0.4-5,0.2-6s2.3-0.1,2.7-2.4s-2.8-5.8-2.4-7.5c0.5-1.7,5.1-5.6,5-8.4c-0.1-2.7,0.1-9.2,0.1-9.2L51.8,79.6z" fill="#FBD7C7"/><path d="M52.9,194.7c-2.2,2.3-5.1,5.4-8.1,7c-3,1.6-5.8,3.8-5.3,6s3.9,4.6,10.1,3c3.7-0.9,5.3-4.4,7.9-5.1  c2.6-0.7,6.5-2.3,6.8-3.6c0.3-1.4,0.3-5.2,0.3-5.2L52.9,194.7z" fill="#262626"/><path d="M91.4,214.2c-1,2.5-2.7,5.6-5.3,8.1c-2.7,2.6-4.7,6.3-3.2,8.1c1.5,1.9,8.1,2.5,11.4,0.6  c3.2-1.9,10-7.7,10.5-8.8c0.5-1.2-0.1-6.2-0.1-6.2L91.4,214.2z" fill="#262626"/><path d="M64.2,201.9c0.1-0.4,0.1-0.9,0.2-1.5c-1.3,1.1-4.3,2.5-7.1,3.3c-3.4,0.9-5.8,4.8-9.4,5.9  c-3.2,0.9-8-0.5-8.4-3.3c-0.2,0.5-0.2,0.9-0.1,1.4c0.5,2.2,3.9,4.6,10.1,3c3.7-0.9,5.3-4.4,7.9-5.1C60,204.9,63.9,203.3,64.2,201.9z  " opacity="0.5"/><path d="M104.7,222.2c0.2-0.4,0.2-1.2,0.2-2.2c-1.1,1.5-3.6,3.6-5.4,5.4c-2.2,2.1-5.5,5-9.6,5.5  c-3.2,0.4-6.3-0.2-7.6-2.5c-0.1,0.8,0,1.5,0.5,2.1c1.5,1.9,8.1,2.5,11.4,0.6C97.5,229.2,104.3,223.4,104.7,222.2z" opacity="0.5"/><path d="M53.8,102.1c0,0-3,9.5-4,23.3s0.6,35.7,0.6,46.6c0,10.9,1.1,19.3,0.4,21.4c-0.7,2.1-1.2,3.3,0,3.3  c1.2,0,5.9,2.2,8.7,2.7c2.8,0.6,5.1,1,5.7-0.9c0.6-1.9,3-23.8,2.7-31.2s0.2-12.8,2-19.3s5.3-26.9,5.3-26.9l0.3-13.9L53.8,102.1z" fill="#06547A"/><path d="M53.8,102.1c0,0-3,9.5-4,23.3s0.6,35.7,0.6,46.6c0,10.9,1.1,19.3,0.4,21.4c-0.7,2.1-1.2,3.3,0,3.3  c1.2,0,5.9,2.2,8.7,2.7c2.8,0.6,5.1,1,5.7-0.9c0.6-1.9,3-23.8,2.7-31.2s0.2-12.8,2-19.3s5.3-26.9,5.3-26.9l0.3-13.9L53.8,102.1z" opacity="0.2"/><path d="M62.7,105.2c-0.1,1.4,0.3,20,1.5,23.5c1.2,3.4,5.1,5.3,7.9,13.3c2.7,8,3.5,15.3,6.2,23.8  c2.7,8.4,10.1,36.2,10.6,41.9c0.5,5.7-0.5,8.7,0.4,9.3c1.6,1,3.6,1.8,5.8,2.4c2.3,0.7,7.5,1.1,9.6-0.1c2.2-1.3,2.6-2.3,1.8-7.3  s-3.2-25.2-5.2-32.3s-6.2-33.6-6.5-42.1c-0.3-8.5,0.5-17.2-2.8-24.3c-3.3-7.1-6.4-9.4-6.4-9.4L62.7,105.2z" fill="#06547A"/><path d="M53.2,100l-0.1,3.7c0,0,1.1,6,13.9,7.1c12.8,1.2,20.5-4.8,20.5-4.8l-0.7-3.1c0,0-11.1,5.3-21.7,3.7  C54.5,104.9,53.2,100,53.2,100z" fill="#262626"/><path d="M67.3,44.8c-4.6,1.6-11.1,1.3-13,6.9c-1.9,5.6-5,14.7-4.3,20.5c0.7,5.8,2.4,12.1,2.6,15.3  c0.1,3.2-0.6,8.2,0.1,10.7s0.8,5.1,4.9,6.9c6.1,2.7,11.7,3.4,18.7,2.4c8.1-1.1,10.7-3.3,11.3-5.4c0.7-2.1,1.2-5.6,2-10  c0.8-4.5,2.3-10.5,2.3-10.5s3.1,4.6,4.5,5.2c1.5,0.7,3.2,0.6,3.2,0.6s1.6,1.4,2.3,1.4c0.7,0,4.5-1,7.2-2.7c2.7-1.6,3.9-2.8,3.9-3.2  c0-0.4-1.1-2.3-1.1-2.3s1.2-1.1,0.5-2.2c-0.7-1-6.5-8.4-8.4-11.8c-1.9-3.4-4.8-10-9.1-12.2c-4.3-2.2-9.4-1.9-10.9-2.6  c-1.6-0.7,0.3-3.3-0.4-4.3C82.9,46.8,73.8,42.4,67.3,44.8z" fill="#3399CC"/><polygon fill="#262626" points="69.3,107.3 78.3,107.5 78.9,124.8 69.5,124.7 "/><path d="M61.6,66.4l3.9-7.9c0,0,3.3-0.9,6.2-3.5c2.9-2.6,8.6-5.4,8.6-5.4S77.4,46.9,77,44c-0.3-2.9,3.1-7.1,1.8-13.9  c-1.2-6.7-7.1-11.5-16.4-7.4S54,41.9,56,48.5c1.9,6.6,7.3,4.3,7.3,4.3s-1.1,5.2-1.2,7S61.6,66.4,61.6,66.4z" fill="#FBD7C7"/><path d="M112.9,83.2c0,0,3,4,3.9,6.8c0.9,2.8-3,8.7-9.8,13.3c-6.7,4.6-15.4,8.9-17.3,10.3c-1.9,1.4-8.5,6.7-11.2,7.4  c-5.4,1.4-8.2-0.6-8.8-2.7c-0.6-2.1,6.4-5.3,7.2-6.3c0.8-1,0-2.8-0.8-3c-0.8-0.3-2.8-0.6-3.3-2c-0.5-1.4,1.2-0.9,2.6-0.6  s4.5,1.2,5.5,1.5c1,0.3,1.6,1.5,3.2,0.9c1.6-0.6,8.8-9.1,12.8-12.4c3.7-3.1,7.5-4.1,7.5-4.1l-2-3.3c0,0,2.6-0.5,6.1-2.4  C110.7,85.2,112.9,83.2,112.9,83.2z" fill="#FBD7C7"/><path d="M55.7,30c-0.1,1.2,0.9,2.5,3.9,3.2c3.8,0.9,7.9-2.1,11-0.2c1.7,1.1,2.3,7.2,3.3,7.2c0.4-1.9,1.1-3.8,2.8-3.5  c1.5,0.3,1.3,2.2,1.2,2.9c0.9,0.4,3.8-8,0.2-13.9c-3.5-6-11.6-6.1-16.4-3.4S55.8,28.8,55.7,30z" fill="#825012"/><path d="M54.7,30.6c0,0-5.5,4.7,0.2,7.5s17.8-1.6,17.8-1.6l7.5-1.6l0.5-1.1c0,0,3.7,0.4,4.5-1.4  c0.9-1.8-5.4-9.7-13.2-12.1S54.4,15.1,53,18.4s2.8,8,2.8,8L54.7,30.6z" fill="#06547A"/><path d="M80.7,33.8l-0.9,2c0,0-10.7,1.5-18-1c-6.6-2.3-7.1-4.3-7.1-4.3l1-4.3c0,0,1.6,2.9,8.9,5.2  C71.1,33.6,80.7,33.8,80.7,33.8z" fill="#262626"/><path d="M62.3,58.1c-0.1,0.7-0.2,1.3-0.2,1.7c-0.1,1.8-0.5,6.5-0.5,6.5l3.6-7.2L62.3,58.1z" fill="#E5E5E5"/><path d="M88.7,57.5c0,0,0.8-1.5,1.7-2.2c0.8-0.6,1.7-0.8,1.7-0.8s-8.3-2.3-9.4-1.1c-1,1.1-0.5,2.4,1.3,2.9  C85.9,56.7,88.7,57.5,88.7,57.5z" fill="#06547A"/><path d="M93.4,74.1L93.3,71l1.9-0.7l0.1-1.9l1.8-0.2l0.5-1.8l2.8,0.3c0,0-0.1,1.4,0.4,1.9c0.7,0.8,2.5,1.3,3,2.8  c0.5,1.6-1.3,5.8-1.3,5.8S98.1,79,96.7,78c-1.3-0.9-0.7-2.6-1.5-3.5C94.5,73.8,93.4,74.1,93.4,74.1z" fill="#06547A"/><polygon fill="#E5E5E5" points="97.6,72.3 97.4,70.8 98.8,71 99.6,69.7 100.2,71.1 101.4,70.9 101.3,72.3 102.4,73.1 100.9,73.8   100.8,75.5 99.6,75.3 98.8,76.6 97.9,75.4 96.7,75.8 97.1,74.1 96,73.1 "/><polygon fill="#06547A" points="65.2,73.7 81.4,79 80.2,82.7 70.6,82.7 64.2,77.5 "/><polygon fill="#06547A" points="57.5,70.7 56.8,73.5 51.5,74.3 49.5,70 50.2,66.3 "/><path d="M53.1,101.1l2.7,4.1c0,0-1.9,13.4-4.5,14.7s-0.5-12.3-0.5-12.3L53.1,101.1z" fill="#262626"/><polygon fill="#E5E5E5" points="88.6,54.2 89.5,55.4 87.6,56.3 87.9,55.6 88.7,55.3 88.4,54.8 "/></svg>