<svg width="32" height="32" xmlns="http://www.w3.org/2000/svg">

 <g>
  <title>background</title>
  <rect fill="none" id="canvas_background" height="402" width="582" y="-1" x="-1"/>
 </g>
 <g>
  <title>Layer 1</title>
  <rect id="svg_1" width="32" height="32" fill="none"/>
  <path fill="#fc923c" id="svg_3" d="m20,8c-0.571,0 -8,0 -8,0s-2,0 -2,2l0,8c0,2.285 2,2 2,2l0,12l8,0l0,-12c0,0 2,0.285 2,-2c0,-2.286 0,-8 0,-8s0,-2 -2,-2zm-4,-2c1.657,0 3,-1.343 3,-3s-1.343,-3 -3,-3s-3,1.343 -3,3s1.343,3 3,3z"/>
 </g>
</svg>